<?xml version="1.0" encoding="utf-8"?>
<!-- Generator: Adobe Illustrator 28.0.0, SVG Export Plug-In . SVG Version: 6.00 Build 0)  -->
<svg version="1.1" id="Layer_1" xmlns="http://www.w3.org/2000/svg" xmlns:xlink="http://www.w3.org/1999/xlink" x="0px" y="0px"
	 viewBox="0 0 272 92" style="enable-background:new 0 0 272 92;" xml:space="preserve">
<style type="text/css">
	.st0{fill:#EA4335;}
	.st1{fill:#FBBC05;}
	.st2{fill:#4285F4;}
	.st3{fill:#34A853;}
</style>
<g>
	<path class="st0" d="M116.6,48.3c0,12.8-10,22.2-22.2,22.2s-22.2-9.4-22.2-22.2c0-12.9,10-22.2,22.2-22.2S116.6,35.5,116.6,48.3z
		 M106.8,48.3c0-8-5.8-13.4-12.5-13.4s-12.5,5.5-12.5,13.4c0,7.9,5.8,13.4,12.5,13.4S106.8,56.2,106.8,48.3z"/>
	<path class="st1" d="M164.6,48.3c0,12.8-10,22.2-22.2,22.2s-22.3-9.4-22.3-22.2c0-12.8,10-22.2,22.3-22.2S164.6,35.5,164.6,48.3z
		 M154.8,48.3c0-8-5.8-13.4-12.5-13.4s-12.5,5.5-12.5,13.4c0,7.9,5.8,13.4,12.5,13.4S154.8,56.2,154.8,48.3z"/>
	<path class="st2" d="M210.6,27.5v39.8c0,16.4-9.7,23.1-21.1,23.1c-10.8,0-17.2-7.2-19.7-13.1l8.5-3.5c1.5,3.6,5.2,7.9,11.2,7.9
		c7.3,0,11.8-4.5,11.8-13v-3.2H201c-2.2,2.7-6.4,5-11.7,5c-11.1,0-21.2-9.7-21.2-22.1c0-12.5,10.2-22.3,21.2-22.3
		c5.3,0,9.5,2.4,11.7,5h0.3v-3.6L210.6,27.5L210.6,27.5z M202,48.4c0-7.8-5.2-13.5-11.8-13.5c-6.7,0-12.4,5.7-12.4,13.5
		c0,7.7,5.6,13.4,12.4,13.4C196.8,61.8,202,56.1,202,48.4z"/>
	<path class="st3" d="M225.8,4.1v65h-9.5v-65H225.8z"/>
	<path class="st0" d="M262.8,55.6l7.6,5c-2.4,3.6-8.3,9.8-18.5,9.8c-12.6,0-22-9.7-22-22.2c0-13.2,9.5-22.2,20.9-22.2
		c11.5,0,17.1,9.2,19,14.1l1,2.5L241.2,55c2.3,4.5,5.8,6.7,10.8,6.7C256.9,61.8,260.3,59.3,262.8,55.6L262.8,55.6z M239.6,47.6
		l19.8-8.2c-1.1-2.8-4.4-4.7-8.2-4.7C246.2,34.7,239.3,39.1,239.6,47.6z"/>
	<path class="st2" d="M36.1,42.6v-9.4h31.7c0.3,1.6,0.5,3.6,0.5,5.7c0,7.1-1.9,15.8-8.2,22c-6,6.3-13.8,9.7-24,9.7
		c-19,0-34.9-15.5-34.9-34.4s16-34.4,34.9-34.4c10.5,0,18,4.1,23.6,9.5l-6.6,6.6c-4-3.8-9.5-6.7-17-6.7c-13.9,0-24.7,11.2-24.7,25
		s10.8,25,24.7,25c9,0,14.1-3.6,17.4-6.9c2.7-2.7,4.4-6.5,5.1-11.7L36.1,42.6z"/>
</g>
</svg>
